<?xml version="1.0" encoding="UTF-8" standalone="no"?><!-- Generator: Gravit.io --><svg xmlns="http://www.w3.org/2000/svg" xmlns:xlink="http://www.w3.org/1999/xlink" style="isolation:isolate" viewBox="0 0 715.133 164.763" width="715.133pt" height="164.763pt"><defs><clipPath id="_clipPath_2nJMjYP6N5tTaUciUkqapBDECjxCWCSZ"><rect x="0" y="0" width="715.133" height="164.763"/></clipPath></defs><g clip-path="url(#_clipPath_2nJMjYP6N5tTaUciUkqapBDECjxCWCSZ)"><rect x="623.729" y="112.588" width="86.897" height="29.83" transform="matrix(0.988,0.155,-0.155,0.988,27.808,-101.821)" fill="rgb(214,235,244)"/><clipPath id="_clipPath_RuzXaTV7sQHzXveAYoMCehxAFYX4Y4dp"><rect x="0" y="0" width="671" height="144" transform="matrix(1,0,0,1,0,0)" fill="rgb(255,255,255)"/></clipPath><g clip-path="url(#_clipPath_RuzXaTV7sQHzXveAYoMCehxAFYX4Y4dp)"><g><clipPath id="_clipPath_eGsjLl0ATAH7mbtZOdDva3r7qyr3PH6q"><path d=" M 0 144 L 671 144 L 671 0 L 0 0 L 0 144 L 0 144 Z " fill="rgb(255,255,255)"/></clipPath><g clip-path="url(#_clipPath_eGsjLl0ATAH7mbtZOdDva3r7qyr3PH6q)"><g><path d=" M 356.168 124.02 C 356.168 123.633 356.941 122.082 357.797 120.609 C 360.512 116.188 379.902 82.445 381.297 79.656 C 382.383 77.562 382.461 76.863 381.609 75.855 C 380.832 74.848 378.738 74.691 368.422 75 C 356.398 75.312 356.168 75.234 356.168 73.684 C 356.168 71.512 360.898 40.41 361.207 40.02 C 362.062 39.246 375.711 42.504 381.219 44.75 C 388.898 47.934 395.723 54.215 399.137 61.273 C 403.945 71.125 403.711 92.996 398.828 102.77 C 392.855 114.559 379.125 122.547 362.062 124.098 C 358.805 124.41 356.168 124.332 356.168 124.02 Z " fill="rgb(22,21,64)"/><path d=" M 0.387 139.066 C 0.543 138.059 2.328 132.398 4.266 126.426 C 9.461 110.371 15.977 89.582 19.004 79.5 C 21.641 70.656 26.293 56.074 33.273 34.902 C 35.215 28.93 37.539 21.094 38.547 17.449 C 41.652 5.738 43.047 1.859 44.754 0.93 C 46.539 -0.078 76.398 -0.391 80.82 0.617 L 83.535 1.16 L 87.18 13.027 C 89.195 19.465 92.453 29.859 94.395 36.066 C 101.141 57.008 106.262 73.684 106.805 76.32 C 107.113 77.715 111.691 92.375 116.965 108.895 C 122.238 125.34 126.582 139.301 126.582 139.844 C 126.582 140.617 122.395 140.773 107.035 140.617 L 87.414 140.387 L 86.172 135.344 C 85.473 132.551 84.387 128.211 83.766 125.648 C 82.914 121.926 82.371 120.996 81.129 121.074 C 80.355 121.074 75.469 121.617 70.348 122.16 C 62.438 123.012 59.566 123.012 51.578 122.004 L 42.039 120.918 L 40.953 124.797 C 40.023 127.898 37.387 139.688 37.387 140.617 C 37.387 140.695 28.93 140.773 18.691 140.773 L 0 140.773 L 0.387 139.066 L 0.387 139.066 Z  M 70.969 92.762 C 72.598 92.375 74.148 91.91 74.305 91.676 C 74.539 91.445 71.977 80.586 68.566 67.398 C 63.059 45.836 61.43 41.496 61.43 47.934 C 61.43 48.863 58.871 59.18 55.766 70.734 L 50.027 91.91 L 53.207 92.609 C 57.395 93.539 67.246 93.617 70.969 92.762 Z " fill="rgb(82,192,167)"/><path d=" M 144.422 94.004 L 144.422 47.156 L 151.246 45.062 C 162.648 41.57 168.312 40.719 181.652 40.254 C 196.543 39.711 206.238 40.875 214.461 44.133 L 219.656 46.227 L 224.543 44.363 C 233.539 40.719 235.789 40.332 248.742 40.41 C 262.551 40.41 267.59 41.34 276.121 45.449 C 283.027 48.785 286.281 52.043 290.082 59.488 C 295.746 70.734 295.824 71.199 296.211 108.043 L 296.598 140.773 L 259.988 140.773 L 259.988 112.695 C 259.988 94.781 259.68 83.379 259.137 81.438 C 257.121 74.07 251.379 70.426 242.848 71.199 C 240.211 71.434 237.805 71.898 237.496 72.285 C 237.109 72.598 237.109 74.457 237.496 76.398 C 237.883 78.336 238.195 93.617 238.273 110.371 L 238.273 140.773 L 201.895 140.773 L 201.664 111.145 C 201.43 81.516 201.43 81.438 199.566 77.637 C 198.094 74.77 196.93 73.527 194.527 72.441 C 191.426 71.047 185.219 70.582 181.883 71.434 L 180.102 71.898 L 180.102 140.773 L 144.422 140.773 L 144.422 94.004 L 144.422 94.004 Z " fill="rgb(82,192,167)"/><path d=" M 311.957 91.676 L 311.957 42.504 L 318.238 41.648 C 326.148 40.484 353.762 38.855 354.383 39.398 C 354.617 39.633 347.402 52.121 338.328 67.09 C 329.332 82.059 322.039 94.855 322.195 95.633 C 322.426 96.797 323.746 96.953 334.836 97.105 L 347.246 97.262 L 347.094 99.434 C 346.703 104.551 342.129 139.531 341.742 140.152 C 341.508 140.465 334.758 140.773 326.617 140.773 L 311.957 140.773 L 311.957 91.676 L 311.957 91.676 Z " fill="rgb(82,192,167)"/><path d=" M 413.719 91.367 L 413.949 41.961 L 417.055 41.262 C 421.086 40.332 439.082 40.176 444.82 40.953 L 449.242 41.57 L 449.242 140.773 L 413.562 140.773 L 413.719 91.367 L 413.719 91.367 Z " fill="rgb(82,192,167)"/><path d=" M 467.082 91.523 L 467.082 42.27 L 546.895 42.27 L 547.516 45.219 C 547.824 46.77 548.133 52.121 548.133 57.008 C 548.133 61.895 547.824 67.246 547.516 68.875 L 546.895 71.742 L 503.535 71.742 L 503.535 87.258 L 538.285 87.258 L 539.215 94.004 C 540.145 100.211 539.914 106.801 538.672 114.637 L 538.207 117.504 L 503.535 117.504 L 503.535 140.773 L 467.082 140.773 L 467.082 91.523 L 467.082 91.523 Z " fill="rgb(82,192,167)"/><path d=" M 595.059 126.191 L 595.059 111.609 L 589.629 102.07 C 586.684 96.875 584.199 92.453 584.199 92.219 C 584.199 91.754 577.684 80.508 569.773 67.398 C 566.672 62.281 563.105 55.922 561.863 53.285 C 560.543 50.648 558.762 47.234 557.828 45.762 C 556.512 43.59 556.277 42.734 556.977 42.039 C 558.293 40.719 592.809 40.719 594.438 42.039 C 595.059 42.578 597.93 47.777 600.875 53.672 C 614.914 81.98 613.984 80.352 614.992 78.957 C 615.535 78.258 620.035 69.57 625 59.645 L 633.918 41.648 L 641.441 41.027 C 650.129 40.41 669.52 41.184 670.527 42.191 C 670.914 42.578 668.199 48.008 664.012 55.145 C 657.266 66.703 655.402 70.039 647.336 84.309 C 645.629 87.41 641.363 94.781 637.875 100.75 L 631.516 111.457 L 631.516 140.773 L 595.059 140.773 L 595.059 126.191 L 595.059 126.191 Z " fill="rgb(82,192,167)"/><g><g opacity="0"><path d=" M 341.664 141.008 C 342.207 138.602 346.859 102.922 347.094 99.434 L 347.246 97.262 L 334.836 97.105 C 323.746 96.953 322.426 96.797 322.195 95.633 C 322.039 94.855 329.176 82.137 338.094 67.324 C 346.938 52.43 355.004 38.934 355.934 37.227 C 357.098 34.98 358.027 34.125 359.348 34.125 C 361.055 34.125 361.207 34.438 361.055 37.227 C 360.977 38.934 359.734 48.008 358.184 57.395 C 356.711 66.781 355.469 74.77 355.391 75.156 C 355.391 75.465 360.898 75.699 367.645 75.621 C 374.316 75.465 380.289 75.465 380.832 75.543 C 382.305 75.699 381.918 78.027 379.98 81.438 C 364.312 108.43 356.168 123.168 356.168 124.332 C 356.168 125.105 354.383 128.754 352.211 132.32 C 349.961 135.887 347.711 139.766 347.094 141.008 C 346.238 142.559 345.387 143.102 343.602 143.102 C 341.43 143.102 341.273 142.945 341.664 141.008 Z " fill="rgb(249,251,251)"/></g></g></g></g></g></g><rect x="605.187" y="119.563" width="107.225" height="43.2" transform="matrix(1,0,0,1,0,0)" fill="rgb(255,255,255)"/><text transform="matrix(1,0,0,1,606.441,153.869)" style="font-family:'Montserrat';font-weight:700;font-size:36px;font-style:normal;fill:#6ec1e4;stroke:none;">BETA</text></g></svg>