<?xml version="1.0" encoding="UTF-8"?>
<svg width="13px" height="11px" viewBox="0 0 13 11" version="1.1" xmlns="http://www.w3.org/2000/svg" xmlns:xlink="http://www.w3.org/1999/xlink">
    <title>Fill 1</title>
    <g id="Page-1" stroke="none" stroke-width="1" fill="none" fill-rule="evenodd">
        <g id="QQ288-web-setting-page" transform="translate(-439.000000, -179.000000)" fill="#FFFFFF">
            <g id="Group-2-Copy" transform="translate(232.000000, 178.000000)">
                <g id="Group" transform="translate(204.000000, 0.000000)">
                    <g id="Group-3" transform="translate(3.500000, 1.166667)">
                        <path d="M3.96778438,6.84824359 C5.7411993,3.64088928 8.25287762,1.32542308 11.6430641,-8.15850816e-06 C8.21918298,2.86313869 5.76273776,6.41763753 4.07563986,10.5721946 C4.02244639,10.4874277 3.98393823,10.4295839 3.94885664,10.3698636 C3.16001049,9.02876807 2.27848368,7.7548986 1.20066317,6.62690326 C0.934287879,6.34812704 0.6459662,6.08917599 0.355441725,5.83520163 C-0.0346981352,5.49417599 -0.102740093,5.19704312 0.146583916,4.74114569 C0.3752669,4.32285897 0.731793706,4.0519965 1.18214336,3.90995688 C1.44191026,3.82804545 1.65019697,3.96111072 1.82160723,4.13194988 C2.1285303,4.43764918 2.44565152,4.73877972 2.71137413,5.07874476 C3.10665385,5.58465385 3.46122261,6.1224627 3.83276107,6.64705478 C3.87069814,6.70057459 3.90594289,6.75597086 3.96778438,6.84824359" id="Fill-1"></path>
                    </g>
                </g>
            </g>
        </g>
    </g>
</svg>